<svg xmlns="http://www.w3.org/2000/svg" viewBox="10 0 960 540">
  <defs>
    <style>
      .cls-1 {
        fill: #CE9131;
      }

      .cls-1, .cls-2, .cls-4 {
        fill-rule: evenodd;
      }

      .cls-2 {
        fill: #CB7919;
      }

      .cls-3 {
        fill: #030404;
      }

      .cls-4 {
        fill: #C64A1E;
      }
    </style>
  </defs>
  <title>combined3</title>
  <g id="Back">
	  <animateTransform attributeName="transform"
							  attributeType="XML"
							  type="translate"
							  from="0 0"
							  to="-960 0"
							  dur="20s"
							  repeatCount="indefinite"/>
    <path class="cls-1" d="M2880,120.49V540H0V120.49q1.76.18,3.57.42c67.32,8.82,72,61.19,143.54,72.41,82.77,13,105.21-52.56,174.42-34.07,38.49,10.28,57.67,37.52,75.69,63.12,17.53,24.89,34,48.25,66,52.94,35.73,5.24,56.65-17.57,82.75-44.08,23.26-23.61,50.62-50.15,96.21-62.4,77.11-20.71,107.69,26.19,172.53,34,29,3.51,43.33,5.34,56.41-3.14,29.5-19.13,20.42-65,49.84-75.71,13.76-5,39-3.51,39-3.51q1.75.18,3.57.42c67.32,8.82,72,61.19,143.54,72.41,82.77,13,105.21-52.56,174.42-34.07,38.49,10.28,57.67,37.52,75.69,63.12,17.53,24.89,34,48.25,66,52.94,35.73,5.24,56.65-17.57,82.75-44.08,23.26-23.61,50.62-50.15,96.21-62.4,77.11-20.71,107.69,26.19,172.53,34,29,3.51,43.33,5.34,56.41-3.14,29.5-19.13,20.42-65,49.84-75.71,13.76-5,39-3.51,39-3.51q1.76.18,3.57.42c67.32,8.82,72,61.19,143.54,72.41,82.77,13,105.21-52.56,174.42-34.07,38.49,10.28,57.67,37.52,75.69,63.12,17.53,24.89,34,48.25,66,52.94,35.73,5.24,56.65-17.57,82.75-44.08,23.26-23.61,50.62-50.15,96.21-62.4,77.11-20.71,107.69,26.19,172.53,34,29.05,3.51,43.33,5.34,56.41-3.14,29.5-19.13,20.42-65,49.84-75.71C2854.76,119,2880,120.49,2880,120.49Z"/>
  </g>
  <g id="Mid">
	  <animateTransform attributeName="transform"
							  attributeType="XML"
							  type="translate"
							  from="0 0"
							  to="-960 0"
							  dur="10s"
							  repeatCount="indefinite"/>
    <path class="cls-2" d="M2880,185.18V540H0V185.18c123,2.89,189.59,72.48,350.13,46.38,17.07-2.78,32.35-6.17,47.09-9.19,34.73-7.12,66.52-12.15,112-2.18a241.73,241.73,0,0,1,36.75,11c46,18,68.57,44.09,119.38,57.32a136.58,136.58,0,0,0,30.08,4.74c14.19.51,127.6,12.12,184.23-52.42,20.45-23.31,29.59-52.09,58.3-56.87,6-1,16.91-.16,22,1.18,123,2.89,189.59,72.48,350.13,46.38,17.07-2.78,32.35-6.17,47.09-9.19,34.73-7.12,66.52-12.15,112-2.18a241.73,241.73,0,0,1,36.75,11c46,18,68.57,44.09,119.38,57.32a136.58,136.58,0,0,0,30.08,4.74c14.19.51,127.6,12.12,184.23-52.42,20.45-23.31,29.59-52.09,58.3-56.87,6-1,16.91-.16,22,1.18,123,2.89,189.59,72.48,350.13,46.38,17.07-2.78,32.35-6.17,47.09-9.19,34.73-7.12,66.52-12.15,112-2.18a241.73,241.73,0,0,1,36.75,11c46,18,68.57,44.09,119.38,57.32a136.58,136.58,0,0,0,30.08,4.74c14.19.51,127.6,12.12,184.23-52.42,20.45-23.31,29.59-52.09,58.3-56.87C2864,183,2874.91,183.84,2880,185.18Z"/>
  </g>
  <g id="Jeep">
    <path d="M576.54,365.08c-3-.22-6-.44-9-.68-5.5-.45-11-.44-16.48-1.3-.2,2.82,1,3.87,3.52,4,4.75.24,9.51.4,14.27.56.17,0,5,.28,5.73.28a2.55,2.55,0,0,0,2.64-1.66C577.55,365.45,577.41,365.14,576.54,365.08Zm9.1,10.41a1.1,1.1,0,0,1-.32-1,21.46,21.46,0,0,0-2.13-10c-.31-.68-.44-1.35-1.46-.95s-.4,1.05-.22,1.52c1,2.63,2.09,5.22,2,8.14-.08,2.2,0,2.22-2.17,2.16-.31,0-.79.28-.94-.27-.1-.39.12-.65.36-1,.64-.85,1.55-1.8,1-2.9a24.44,24.44,0,0,0-3-5,4.36,4.36,0,0,0-.79-.58,3.32,3.32,0,0,1-1.14,2.18,3.87,3.87,0,0,1-2.36.65c-.52,0-5.78-.26-5.82-.26-4.47-.23-8.93-.5-13.4-.59-3.19-.06-4.37-.92-4.8-4-.07-.49,0-1-.78-1s-1-.58-1.09-1.26c-.76-3.84-1.55-7.69-2.37-11.52-.14-.7-.63-1.35.36-1.87.31-.16.45-.67.64-1,.58-1.14,0-3.29-1.08-3.73a3,3,0,0,0-3.79,1.77c-.38,1.1.06,2,.83,3.09-1.51-.45-2.87.32-4.09-.51a5.78,5.78,0,0,0-2-.12c-5.08,0-10.16,0-15.24,0l-.06.06-.07,0a1.78,1.78,0,0,1-1.46.48c-2.81,0-5.61,0-8.42,0a6,6,0,0,0-3.13,2.08c-3,4.62-6,9.19-9,13.84-.54.86-.9,2.29-2.59,2.23-.92,0-1.52.89-1.8,1.83-.08.25.09.7-.35.67s-.32-.5-.32-.8c0-2.78,0-5.57,0-8.35a2.22,2.22,0,0,0-1.61-2.44l-4.81.07a2.83,2.83,0,0,0-1.37,1.34q0,10.08,0,20.18a5.88,5.88,0,0,0,.21,1.08l.07,0,0,.08,1.08.85.09,0,.06.06h.62c.75,0,1.65-.23,2.19.1s.09,1.31.21,2a5.93,5.93,0,0,0,.33.92s.06,0,.06.06a.8.8,0,0,1,0,.15,19.41,19.41,0,0,0,6.54-.07l.32-.4c0-.17.07-.34.11-.5,0-.68,0-1.35,0-2-.47-.1-.22-.29-.06-.47s0-.55.3-.38c.59.34,1.24.14,1.85.18l.2,0a12,12,0,0,1,18.53-.27.7.7,0,0,1,.54-.06h0a1.14,1.14,0,0,0,.41,0,1.57,1.57,0,0,1,.33,0,3.72,3.72,0,0,1,2.08.44c.85.46,1.67.95,1.21,2.16a.92.92,0,0,0,0,.37c0,.43.26,1.14.11,1.23a10.14,10.14,0,0,1-1.91.71l-.05,0a.71.71,0,0,1-.2,0,10.69,10.69,0,0,1,.26,1.5c0,.17,0,.33,0,.5a.48.48,0,0,1,.16-.09l.14-.06,1.5-.43,1.22-.36a.27.27,0,0,1,.23-.06,17,17,0,0,1,7-1.5c5.31.13,10.63,0,15.94.05a5.48,5.48,0,0,1,3,.76,3.75,3.75,0,0,1,.61.46l2.28.41a1.88,1.88,0,0,1,1.25.61A12.46,12.46,0,0,1,556,385c0-.17.08-.34.13-.51a1.61,1.61,0,0,1-.59-.15c-.64-.16-.18-.48,0-.71a1.25,1.25,0,0,0,.17-1,1.46,1.46,0,0,1,0-.2l0-.18a1.1,1.1,0,0,1,0-.18,2,2,0,0,1,0-.35.68.68,0,0,1,0-.14.09.09,0,0,1,0-.05l0-.12h0s0,0,0,0a.19.19,0,0,1,0-.1l0-.07s0,0,0,0a.3.3,0,0,1,0-.1l.1-.17.09-.11.08-.1.07-.07.07-.07.13-.12.1-.08.09-.06.2-.13.22-.12.35-.17a1.09,1.09,0,0,1,1.41-.17l0,0a12,12,0,0,1,17.94-.15,6.53,6.53,0,0,0,1,0c.94-.14,1.51,0,1.28,1.19a.83.83,0,0,0,.39,1,7.57,7.57,0,0,0,4.16-.43c0-.16,0-.31.05-.46v-2.76c0-.17,0-.25.21-.21h1.27l.48,0C586.68,376.91,586.74,376.54,585.64,375.49Zm-90.52.85c-.65.08-.13-.59-.39-.77.12-.35-.17-.83.29-.89s.35.44.34.71S495.59,376.28,495.12,376.34Zm50.32-8.46c0,.21,0,.49-.28.48-1.52-.06-1,1.08-1,1.76s-.51,1.7.92,1.52a.29.29,0,0,1,.3.32c0,.44.2,1-.43,1.14s-1.44.48-1.94-.07a.94.94,0,0,1,.27-1.45c.61-.38.53-2.77-.1-3.17s-.25-.73-.28-1.1c0-.53.4-.39.71-.42,0-.16.06-.35.27-.32s.14.16.22.25C544.76,366.94,545.68,366.69,545.44,367.88ZM521.22,350a.12.12,0,0,1,.16.05,3.19,3.19,0,0,0,1.7.19q7.92,0,15.84,0a19.85,19.85,0,0,1,3.08-.13c.63-.07.54.48.6.75.79,3.68,1.54,7.37,2.29,11.06,0,.19.07.55,0,.59-.89.38-.6,1.29-.82,2-.65-.16-.23-.69-.51-1l-1.64.87c.5-1.09.9-2,1.31-2.88.2-.42.49-.88-.09-1.18s-.69.29-.86.62a17.59,17.59,0,0,0-1.3,2.91,2.75,2.75,0,0,1-2.92,2.09c-3,.08-6.07,0-9.11,0a.67.67,0,0,1-.78-.59c-.22-.84-.52-1.66-.81-2.48-.18-.51-.38-1.11-1-1.18-1-.11-1.11-.59-1-1.46a12.14,12.14,0,0,0-.14-2c0-.85-.33-1.31-1.29-1.24s-1.4.36-1.32,1.37a7.39,7.39,0,0,1-.14,2.23l-1.77-6.69c-.26-.93-.51-1.86-.76-2.79a.41.41,0,0,1,0-.16,0,0,0,0,1,0,0v0l0-.07c0-.07,0-.13-.07-.19s-.06-.15-.08-.22a1.54,1.54,0,0,1,0-.17C519.61,349.75,519.93,349.79,521.22,350Zm8.44,19.17c0,.63-.53.34-.83.37-.69.08-1.4.1-2.1.13-.28,0-.61,0-.58-.43a.55.55,0,0,1,.54-.57c.41,0,.83,0,1.24,0h0c.29,0,.59,0,.88,0S529.63,368.71,529.66,369.13ZM503.28,362c2.21-3.46,4.45-6.89,6.69-10.33.43-.66.85-1.34,1.72-1.51a11.16,11.16,0,0,1,5.82,0c.89,2.26,1.36,4.65,2,7,.62,2.08,1.18,4.19,1.75,6.28a4.6,4.6,0,0,1,.11.73c.7,1.8.7,1.82-1.17,1.8-1.69,0-3.38-.07-5.07-.11-4.73.27-9.47.07-14.31.14A20.57,20.57,0,0,1,503.28,362Zm24.59,19.41c-.79.71-1.42.11-2-.46-2.44-2.43-4.89-4.85-7.31-7.32a3.32,3.32,0,0,0-2.55-1c-3.44,0-6.87,0-10.31,0-1.66,0-2.44,1.4-3.48,2.36s-2,2-3,2.94c-.58.54-1.27.7-1.84,0a1.23,1.23,0,0,1,.17-1.86c1.49-1.41,2.95-2.83,4.32-4.37a5.57,5.57,0,0,1,5.3-1.52l.23,0h3.76l.24,0,.26,0,.25-.06.5.05a.25.25,0,0,1,.24,0,11.7,11.7,0,0,1,2.51,0l.26,0,.49.06c.59,0,1.22-.26,1.75.21,1.37.06,2.21,1,3.1,1.87a58.29,58.29,0,0,1,4.4,4.35,12.89,12.89,0,0,0,2.5,2.45A1.65,1.65,0,0,1,527.87,381.42Zm11.8-4.56-5.5.18c-2.82.09-4.23-.06-5.2-.51a12.16,12.16,0,0,1-5.21-6.64,10.75,10.75,0,0,1-.07-3.54c0-.25,0-.41.28-.42s.35.16.34.4c0,1.16,0,1.74,0,2.36a5.29,5.29,0,0,0,.7,2.67l.15.28a6.75,6.75,0,0,0,.48.7,14.75,14.75,0,0,0,3.82,3.67c.86.48.94.23,6.69.35a17.64,17.64,0,0,0,5.36-.42c1.29-.31,2.55-.78,2.94-.61.23.11-.59.82-.78,1A17.82,17.82,0,0,1,539.67,376.86Zm37.5-1.25a.26.26,0,0,1-.32-.19.6.6,0,0,1-.43-.49c-.14-.05-.25-.11-.21-.28-.6-1.58-1.75-2.09-3.42-2-3.22.11-6.45.06-9.67,0a3.53,3.53,0,0,0-2.65,1.09c-2.37,2.25-4.78,4.46-7.17,6.7a2.21,2.21,0,0,1-1.13.71.19.19,0,0,1-.19.11h0l-.1.07a1.27,1.27,0,0,1-.23.12l-.16.07-.18.06-.2.05-.15,0h-.05l-.13,0-.17,0h-1.32c-1.37,0-2.73,0-4.09-.05-1.28-.38-1.47-.94-.71-2.07.38-.72,1.07-.44,1.64-.45.85,0,1.7.05,2.56.09,2.79.42,4.05-1.85,5.75-3.31s3.27-3.09,4.93-4.62a4.94,4.94,0,0,1,3.29-1.2,27.93,27.93,0,0,1,5.86,0c2.3.42,4.52-.45,6.75.22,1.42.43,3.45,2.51,3.59,4C578.91,375.17,578.28,375.65,577.17,375.61Z"/>
    <g id="Right">
	  <animateTransform attributeName="transform"
							  attributeType="XML"
							  type="rotate"
							  from="0 567 388"
							  to="360 567 388"
							  dur="2s"
							  repeatCount="indefinite"/>
      <path class="cls-3" d="M571.16,387.43a1,1,0,0,1-.95-.89c0-.59.46-.89,1.06-.9a.82.82,0,0,1,.92.92C572.18,387.08,571.91,387.42,571.16,387.43Z"/>
      <path class="cls-3" d="M571.88,389.32c-.1.52-.38.94-.94,1a.9.9,0,0,1-1-.82.91.91,0,0,1,.85-1C571.43,388.34,571.7,388.81,571.88,389.32Z"/>
      <path class="cls-3" d="M569.78,385.09a.89.89,0,0,1-.92-.24.9.9,0,0,1-.18-.63,1,1,0,0,1,.11-.46.9.9,0,0,1,1.7.36A1,1,0,0,1,569.78,385.09Z"/>
      <path class="cls-3" d="M568.61,390.15c.63,0,1,.43.93.93s-.16,1.06-.78,1-1.08-.29-1.06-1A1,1,0,0,1,568.61,390.15Z"/>
      <path class="cls-3" d="M564.47,386.52a.87.87,0,0,1-.89-.92.84.84,0,0,1,.81-.92.88.88,0,0,1,1,.85C565.47,386.13,565.09,386.42,564.47,386.52Z"/>
      <path class="cls-3" d="M565,388.51c-.1.54-.42.91-1,.84a.87.87,0,0,1-.81-1,.84.84,0,0,1,.92-.81A.89.89,0,0,1,565,388.51Z"/>
      <path class="cls-3" d="M567.68,383.88a.9.9,0,0,1-1,.92.87.87,0,0,1-.84-1,.82.82,0,0,1,.89-.83A.91.91,0,0,1,567.68,383.88Z"/>
      <path class="cls-3" d="M566.69,390.58c-.07.61-.34,1-1,1s-.72-.42-.78-.86a.81.81,0,0,1,.86-1A.79.79,0,0,1,566.69,390.58Z"/>
      <path class="cls-3" d="M578.5,387.05l.56-.09a11.41,11.41,0,0,0-.38-2.43l-.56.08-.11-.34c-.06-.17-.11-.32-.18-.54l.5-.26a11,11,0,0,0-1.12-2.19l-.5.25-.55-.75.4-.4a11.93,11.93,0,0,0-1.74-1.74l-.41.39-.74-.54c.09-.19.17-.35.24-.51a11.46,11.46,0,0,0-2.18-1.11c-.08.15-.16.31-.27.5l-.87-.29c0-.21,0-.39.08-.56a11.41,11.41,0,0,0-2.43-.38l-.1.55h-.92c0-.21-.07-.38-.1-.55a11.42,11.42,0,0,0-2.42.38c0,.17,0,.35.08.56l-.88.29-.27-.5a11.46,11.46,0,0,0-2.18,1.11c.07.16.15.32.24.51L561,379l-.41-.39a11.38,11.38,0,0,0-1.73,1.74l.39.4-.54.75-.51-.25a11.59,11.59,0,0,0-1.12,2.19l.5.26-.28.88-.56-.08c0,.15-.08.31-.11.46a10.62,10.62,0,0,0-.27,2l.55.09V388l-.55.09a11,11,0,0,0,.34,2.25,1.16,1.16,0,0,0,0,.18l.56-.08.28.88-.5.26a11.3,11.3,0,0,0,1.12,2.19l.51-.25.54.75-.39.4a11.38,11.38,0,0,0,1.73,1.74L561,396l.74.54-.24.51a11.46,11.46,0,0,0,2.18,1.11l.27-.5.88.29c0,.21-.06.39-.08.56a11.42,11.42,0,0,0,2.42.38c0-.17.06-.34.1-.55h.92l.1.55a11.22,11.22,0,0,0,2.42-.38c0-.17,0-.35-.07-.56l.87-.29c.11.19.19.35.27.5a11.46,11.46,0,0,0,2.18-1.11l-.24-.51.74-.54.41.39a11.86,11.86,0,0,0,1.74-1.73l-.4-.41.55-.75.51.25a11.93,11.93,0,0,0,.88-1.61c.08-.19.16-.38.23-.58l-.5-.26c.11-.35.17-.53.29-.88l.56.08a11.41,11.41,0,0,0,.38-2.43l-.56-.09Zm-10.84,6.11a5.68,5.68,0,0,1-4.54-2.27,5.61,5.61,0,0,1-1.17-3.42,5.55,5.55,0,0,1,.71-2.7,5.81,5.81,0,0,1,5.05-3,5.48,5.48,0,0,1,4.81,2.65,6.49,6.49,0,0,1,.89,3.34,5.11,5.11,0,0,1-1.78,3.83A6,6,0,0,1,567.66,393.16Z"/>
    </g>
    <g id="Left">
	  <animateTransform attributeName="transform"
							  attributeType="XML"
							  type="rotate"
							  from="0 510 388"
							  to="360 510 388"
							  dur="2s"
							  repeatCount="indefinite"/>
      <path class="cls-3" d="M506.8,388.66c-.88,0-1.13-.5-1.1-1.08a.94.94,0,0,1,.89-.86c.45.08,1.08.23,1,1A1,1,0,0,1,506.8,388.66Z"/>
      <path class="cls-3" d="M509.51,391.52a.85.85,0,0,1,.85-.93.94.94,0,0,1,.74.24.86.86,0,0,1,.24.61,1,1,0,0,1-.27.73.93.93,0,0,1-1,.19A1,1,0,0,1,509.51,391.52Z"/>
      <path class="cls-3" d="M512.92,386.05a.9.9,0,0,1-.78-.92.88.88,0,0,1,.93-.94.84.84,0,0,1,.88,1C513.93,385.74,513.51,386,512.92,386.05Z"/>
      <path class="cls-3" d="M514,390.36a.88.88,0,0,1-.92.94.85.85,0,0,1-.89-.84.89.89,0,0,1,.86-1C513.57,389.4,513.88,389.8,514,390.36Z"/>
      <path class="cls-3" d="M514.25,388.66c-.68,0-1-.37-1-.93s.16-.87.77-.87,1,.25,1.07.81A.87.87,0,0,1,514.25,388.66Z"/>
      <path class="cls-3" d="M507.86,391.33c-.56-.08-1-.3-1-.91a.89.89,0,1,1,1.78-.13C508.72,390.89,508.35,391.17,507.86,391.33Z"/>
      <path class="cls-3" d="M507.78,386.05c-.54-.11-.93-.37-.89-1a.83.83,0,0,1,.87-.86.84.84,0,0,1,.87,1C508.62,385.77,508.25,385.93,507.78,386.05Z"/>
      <path class="cls-3" d="M510.39,383.14a.89.89,0,1,1,.05,1.78.84.84,0,0,1-.92-.93A.8.8,0,0,1,510.39,383.14Z"/>
      <path d="M521.2,387.32l.56-.1a1.64,1.64,0,0,0,0-.22,6,6,0,0,0-.06-.61,10.16,10.16,0,0,0-.3-1.59l-.56.08c-.12-.36-.17-.53-.29-.88l.5-.27a11.46,11.46,0,0,0-1.11-2.18l-.51.24c-.22-.3-.33-.44-.54-.74.14-.16.27-.29.39-.41a11.38,11.38,0,0,0-1.74-1.73l-.4.39-.75-.54c.09-.2.17-.36.25-.51a11.59,11.59,0,0,0-2.19-1.12l-.26.5-.88-.28c0-.22.05-.4.08-.56a11.41,11.41,0,0,0-2.43-.38c0,.16-.06.34-.09.55h-.93c0-.21-.06-.39-.09-.55a11.41,11.41,0,0,0-2.43.38c0,.16.05.34.08.56l-.88.28c-.1-.19-.19-.35-.26-.5a11.3,11.3,0,0,0-2.19,1.12l.25.51-.75.54c-.15-.15-.28-.28-.41-.39a10.89,10.89,0,0,0-1.73,1.73l.39.41-.54.74-.51-.24a11.46,11.46,0,0,0-1.11,2.18l.5.27c-.11.31-.17.48-.25.76,0,0,0,.08,0,.12l-.56-.08a11.42,11.42,0,0,0-.38,2.42l.55.1v.92l-.55.1a11.32,11.32,0,0,0,.38,2.42l.56-.07.29.87-.5.27a10.91,10.91,0,0,0,1.11,2.18l.51-.24.54.74-.39.41a11.32,11.32,0,0,0,1.73,1.73c.13-.11.26-.24.41-.39l.75.55-.25.5a11.3,11.3,0,0,0,2.19,1.12c.07-.15.16-.31.26-.5l.88.28c0,.22-.05.4-.08.56a11.41,11.41,0,0,0,2.43.38c0-.16.06-.34.09-.55h.93c0,.21.07.39.09.55a11.41,11.41,0,0,0,2.43-.38c0-.16,0-.34-.08-.56l.88-.28.26.5a11.59,11.59,0,0,0,2.19-1.12c-.08-.15-.16-.31-.25-.5l.75-.55.4.39a11.38,11.38,0,0,0,1.74-1.73c-.12-.12-.25-.25-.39-.41.21-.3.32-.44.54-.74l.51.24a10.91,10.91,0,0,0,1.11-2.18l-.5-.27.29-.87.56.07a11.32,11.32,0,0,0,.38-2.42l-.56-.1Zm-10.71,6.14a5.69,5.69,0,0,1-5.76-5.74,4.19,4.19,0,0,1,0-.5,5.62,5.62,0,0,1,.55-1.91,5.79,5.79,0,0,1,5.2-3.21,5.66,5.66,0,0,1,5.5,4.31l.06.25a6.12,6.12,0,0,1,.11,1.14A5.86,5.86,0,0,1,510.49,393.46Z"/>
    </g>
  </g>
  <g id="Fore">
	  <animateTransform attributeName="transform"
							  attributeType="XML"
							  type="translate"
							  from="0 0"
							  to="-960 0"
							  dur="5s"
							  repeatCount="indefinite"/>
    <path class="cls-4" d="M2880,382.69V540H0V382.69c74.79,7.66,183.8,20.73,350.94,14.31,67.71-2.6,84.87-6.09,148.62-9.51l5.2-.27,1.08-.06,1.6-.08,8.63-.42,5.61-.27c.23,0,.45,0,.68,0l1.85-.08c8.38-.37,17.46-.74,27.37-1.11L556,385h.6l6.08-.22,1.52,0h0l.49,0h0l1.54-.05h0l1.07,0,1.39-.05h0l1.7-.05,2.1-.07,5.49-.18c31.59-1,58-1.39,82.4-1.45,60.09-.14,231.05,9.35,260.28,4.18,1.94-.34,10.1-2,21.31-3,7.15-.66,18-1.31,18-1.31,74.79,7.66,183.8,20.73,350.94,14.31,67.71-2.6,84.87-6.09,148.62-9.51l5.2-.27,1.08-.06,1.6-.08,8.63-.42,5.61-.27c.23,0,.45,0,.68,0l1.85-.08c8.38-.37,17.46-.74,27.37-1.11l4.4-.16h.6l6.08-.22,1.52,0h0l.49,0h0l1.54-.05h0l1.07,0,1.39-.05h0l1.7-.05,2.1-.07,5.49-.18c31.59-1,58-1.39,82.4-1.45,60.09-.14,231,9.35,260.28,4.18,1.94-.34,10.1-2,21.31-3,7.15-.66,18-1.31,18-1.31,74.79,7.66,183.8,20.73,350.94,14.31,67.71-2.6,84.87-6.09,148.62-9.51l5.2-.27,1.08-.06,1.6-.08,8.63-.42,5.61-.27c.23,0,.45,0,.68,0l1.85-.08c8.38-.37,17.46-.74,27.37-1.11l4.4-.16h.6l6.08-.22,1.52,0h0l.49,0h0l1.54-.05h0l1.07,0,1.39-.05h0l1.7-.05,2.1-.07,5.49-.18c31.59-1,58-1.39,82.4-1.45,60.09-.14,231.05,9.35,260.28,4.18,1.94-.34,10.1-2,21.31-3C2869.15,383.34,2880,382.69,2880,382.69Z"/>
  </g>
</svg>
