<svg id="Layer_1" data-name="Layer 1" xmlns="http://www.w3.org/2000/svg" viewBox="1200 0 1000 1797.83">
  <defs>
    <style>
      .cls-1 {
        fill: #c7b299;
      }

      .cls-1, .cls-2 {
        stroke: #000;
        stroke-linecap: round;
      }

      .cls-3 {
        font-size: 24px;
        font-family: Helvetica, sans-serif;
      }

      .cls-4 {
        letter-spacing: -0.01em;
      }

      .cls-5 {
        letter-spacing: 0em;
      }

      .cls-6 {
        letter-spacing: 0.01em;
      }

      .cls-7 {
        letter-spacing: -0.05em;
      }

      .cls-8 {
        letter-spacing: 0em;
      }
    </style>
  </defs>
  <title>africatest</title>
  <path id="Algerien" class="cls-1" d="M834.36,383.37l48.08-24,9.93,3.55,16.47-14.31,27.66,2.53L938,338.4c57.24,2.8,69.12-12.51,79.23-27.86l47.92-19.74,17.7.55-9.27-12.25,2.44-9.69-.39-16.05c18.75-2.45,41.86.56,42-19.05l77.53,1.08,10.76-22.3c-14.86-5.45-17.52-26.94-15.53-49.78,1.48-16.95.14-55.52.14-55.52-5.13-6.19-11.52-12-13-20.91,4.14-1.85,23.6,1.34,35.42-14.48,6.08-8.16,13.86-24.61,24-21.4,11.85,3.76,34.56,6.13,36-1.4,1.48-8.05,23.49-25.76,55.27-25.65,58.2.18,133.4-22,158-14.76s56.57-9.57,70.78-8.65,18.62,16.52,38.14,3.24c7.3-5,33.64,15.68,58.75,8.37,0,0-15,6.66-15.84,22.05-1.3,23.7-3.5,97.48-3.5,97.48-2.49-4-20.34-1-23.14,11-3.82,16.37-22.23,12.13-23.69,20.4-2.94,16.64,11.58,31.92,28.68,46.85,4.38,3.82-1.62,25,2.73,28.89,13.24,11.82,36.72,19.86,36.72,19.86,5.45,54.22,15.1,91.66,15.1,91.66-24.84,1.67-11.56,24.73,5.17,49.35l1,141s-22.44,4.55-20.89,10.33c3.48,13,4.29,22.59,20.69,37.19,10.53,9.37,10.73,25.18,9.82,35.56-1,12,11,17.41,14.2,17.33,24.62-.59,45.44-12.57,68.76,51.74l-295,193.85c-43.78,18.86-115.89,30.14-118.37,29-16.44-7.24,2.62-25.34-2.9-37.46s-12.18-21.24-30.93-19.21c-10,1.08-15.2-11.75-19.15-11.09-16,2.64-20-15.5-23.55-18.72-14-12.81-27.9-16.53-24.71-28.17L824,472.55l10.37-89.18Z"/>
  <path id="Kamerun" class="cls-1" d="M1980.27,1797.06c-13.44-5.91-29.5-19.3-39-14L1907.43,1771l-67.77-.62h-106.4l-72.46.79,7.35-55.57-19.05-24.62,7.14-8.73-4.76-7.15-12.7,4c-15.69-2-21.31-13.06-25-25.93-8.48-3.18-20.34-2-20.27-16.15,17.82-30.86,21.7-73,56.49-90.13l1.21-13.6,49.67-2.35c18.56,11.91,12.63,25.6,44.14,21.6,21.81-39.37,37.63-111.71,66-114.81,17.2-42.35,22.31-102.44,51.61-127,14.44-5.16,26.75-11.29,32.1-20.58,3.11-5.43,3.86-23,1.26-31-1.87-5.77-5.46-1.28-11.13-8.78l-8.53-32.52,6.9-5.59,26.24,22.23c3.73,18.2,12.8,35.06,11,54.63-1.91,28.46-13.65,32.53,14.73,65,4.83,8.06,5.93,16.57,4.89,25.36l-52.89-5.25c-5.9,14.44-19,47.22,33.14,58.79l24.58,73.85L1899.21,1583l6.38,55.62c19.33,35.64,41.73,72.76,73,101.59l1.66,56.9Z"/>
  <path id="Libyen" class="cls-1" d="M1762.69,206.39s7.49,29-14.92,44.94c-11.27,8-48.13,35-48.13,35,3.13,16.49,7,57.76-28.81,63.38-24.6,3.86-11.71,23.75,4.74,50.73l1,140.47s-21.89,4.28-20.34,10.06c3.48,13,3.74,22.31,20.14,36.91,10.53,9.37,10.72,26.29,9.82,36.67-1,12,12.43,17.14,15.59,17.06,24.62-.59,44.05-12.3,67.38,52l115.69,3.56c13.49,2.85,27.76,23.5,27.76,23.5l66.26-18.82,390.14,192.9-.7-31.33c43.13,3.51,48.08-1.45,48.08-1.45l-26.66-455.79c-15.67-21.5-31.11-42.57-12.28-66.42,0,0,.13-25.29-4.59-39.64-4.9-14.93,8.56-25.09,8.56-25.09-.21-19.32-37.31-17.85-56.82-18.85-25.61-1.32-42.82-4.83-38.36-24,0,0-66.95-24-92.86-8.19-13.77,8.42-42.8,21.87-48.08,39.12-3.55,11.59-.37,19.46,6.54,31.24,12.1,20.61-28.76,91.41-75.47,34.75,0,0-61.36-16.89-96-24.46-33.92-7.41-57.32-37.16-43.25-55.16,1.38-1.76-92.05-28.79-92.05-28.79-43.15,6.67-74.75-5.94-82.42-14.35Z"/>
  <path id="Mali" class="cls-1" d="M978,589.2l-76.44,2.06,3.61,441.15,20.16,7.13-14.13,43.13-225.31-12.75L660,1088.1l-14.17-5.24L636,1053.74l-12.88-3.44c-25.37,55.46-29.27,49-38.69,58.5,1.54,5.67-2.16,11.08-.33,16.28,5.7,16.26,9.29,32.75.69,39.78,11.74,10.45,26.88,18.77,31.23,33.83.84,19.21-.21,34-5.37,39.23s1,17.09,11.6,8.13l10.36-6.29c3.4,5.42,10.9,8.38,9.81,16.5l22.81-15.6,27.86,11.58c2.83-4.27-.72-10.67,10.12-12.27,5.69.16,9.69-3.91,11.37-13.79l15.3,3.71c4.11,14.41,9.13,28.95,6.49,42.39l22.57,17-17.24,15.78,4.77,7.2,12.57-8.38,1.87,30.19,15.88,14.59c6.51-6.46,16.91-14.61,24.77-10.52,7.42,3.85,10.87,18.93,17.86,14.22,7.32-4.93,8.69-9.53,20-9.52,8.54,0-7.31-14.74,3.32-14.44,4.93.15,12.65-5.67,21.18-3.42,8.19,2.15-2,32.62,4,26.08,14.87-16.22,44.49-9.94,47.35-6.31,8.3-29.7-7.91-57.09,49-91.38l25.11-52.89c33.48-14,69.41-7.65,100.19-44.18,38.7-25.85,77.37-45.29,98.27-39.5l39.07,0,21.95-18.73,105.09,1.31c2.66-5.16,4.13-9,18.64-16.09.12-12.68,11.5-13.38,19.4-17.38l4.13-155.73L1356.66,916c-15.58-10.13-2.48-13.36-2.33-35.88-8.89-20-20.18-23-31.27-21-9.75,1.73-14.13-12.09-19.25-11-8.8,1.79-18.44-6.66-24.28-19.09-2-4.23-7.44-6.16-11.13-8.69-8.19-5.63-15.67-10-13.55-18.73,0,0-187.64-143.33-276.85-212.28Z"/>
  <path id="Niger" class="cls-1" d="M1396,910.71l-4.3,155.85c-6.89,4-16.47-.08-19.09,16.73-7.67,4.44-17.11,7.56-18.8,16.47l-105.33-1-21.4,18-39.85.21c-1.15,8.58-.94,19.32,5.84,24.63,6,4.71,5.13,14.63,3.6,23.37l50.4,67.23,18.28,6.83c10.13-8.89,19.36-11.5,24,18.39l62.41,8.85c4.35-10,3.3-23.81,14.61-28.82,17-9.6,14.2-26.38,20.26-40,13.86-6.61,5-16,78.24-15.33,18.94,11.91,37.21,15.89,57.16,39.83l14.69.6c.42-5,15.23-15.34,24.29-17.06,9.81-5.34,27.26,4,50.51,24.37l41.42,3.71,39.78-28.53,69.54-1.78c10.48,4.09,18.25,13.47,33.73,9.59,11.12-12.51,32.39-24.46,56.82-34.76-3.8-11.07-8.06-21.88-4.53-36.09,6-5,13.29-5.8,14-24.44l84-93.23,15.58-148.67,11.87-29.89c-24-9.84-40.47-19.16-45.74-52.31-2.87-18.06,1.23-41.37-.56-75.09l-15,2.56c-8.21-9.67-16.16-20-26.66-23.58L1768,693.08,1469.57,889.84,1396,910.71Z"/>
  <path id="Nigeria" class="cls-1" d="M1593.42,1637.51l-10.09-.47L1580,1654.7c-17.3.42-34.59-1.41-51.9-7.72-41.32,25.72-74,21.51-90.94-37.86-12.84-33.14-33.62-43.9-55.63-51.2l-71.9.41,3.14-114.76c11.41-14.52,18.51-34.79,24.92-56,19.23-4.74,15.12-21.64,16-35.94,19.22-12.73,6.62-32.7-1.29-46.08l1.24-37.34c1.64-10.58-.77-22,14.41-31.75,5.91-7.27,11.82-3.73,17.73-39.26,10.54-8.1,21.67-16.06,78.41-14.26,19.83,10.37,45.08,18.79,58.85,40.16l12.77-.62c8.24-5.8,10.79-16,25.77-16.59,8.55-.19,9.05-8.4,49.59,23.41l42.26,4,39.25-28.29,70.36-1.38c10.27,4.28,18.68,13.66,32,9.57,17.58-17.51,38.92-26.56,59-35,8,12.85,19.17,25.41,29.18,33.43l-6.68,5.33,8.46,34c3.93,3,11.08,4,11.26,9.24,7.56,33.38-11.15,43.71-33.28,51.08-28.19,21.93-35.27,82.1-51.46,125.76-31.48,9.3-42,67.52-66,115.39-23.22,4.54-29.1-6.77-43.67-22.5l-50.6,3.28-1.33,13.53c-32.31,16.88-39.75,55.14-56.44,90.76Z"/>
  <path id="Tschad" class="cls-1" d="M2368.49,894,1978,701.63l-51.73,15.63c3.54,30.56.94,54.21,1.49,72.92.8,27.42,19.88,46.64,46,55.91l-11.58,28.18-16.64,150.9-81.51,89.7c-2.59,5.08-4,10.17-3.72,15.26-2.58,5.84-5.9,8.38-9.43,9.91-5.69,3.53-2.89,9.51-3.55,13.94-4.74,31.8,61.73,78.88,61.73,78.88,3.43,14.37,8.49,27.13,11,42.29,2.73,16.35-5.27,36.07-3,50.24,3.35,20.56,26.17,22.63,23.05,54l-52.34-4.82c-15.19,30.32-4.56,50.08,32.74,58.93l24.64,73.55c39.57-9,67.44-4.23,119.15-27.59l47-4.66c8.68-14.8,27-22.68,20.74-48.17l65.09-7.1c5.09-4.74,7.53-12.13,15.8-13.69,12.76-.4,16.49-8.69,19.9-17.26,5.95-14.09,20.94-19.14,32.2-27.92,2-46.48,37.17-33.17,58.57-42l-2.56-16.13c-12.25-13.36-22.82-28.52-26.65-71l-22.84,4.29-.5-20.66c7-7.5,12-25.29,10.22-37.94l10.64-5-2.62-26.86,31.44-40.19-1-19.69,54.19-2.85L2368.49,894Z"/>
  <circle class="cls-2" cx="1574.13" cy="1026.42" r="12.5">
    <animate attributeName="fill" values="black;red;black" dur="2s" repeatCount="indefinite" />
  </circle>
  <circle class="cls-2" cx="1801.13" cy="909.42" r="12.5" />
  <text class="cls-3" transform="translate(1574.13 1061.42)"><tspan class="cls-4">A</tspan><tspan x="14.4" y="0">gadez</tspan></text>
  <text class="cls-3" transform="translate(1801.13 944.42)">Di<tspan class="cls-5" x="21.6" y="0">r</tspan><tspan x="29.54" y="0">kou</tspan></text>
  <circle class="cls-2" cx="1899.13" cy="495.42" r="12.5"/>
  <text class="cls-3" transform="translate(1899.13 530.42)"><tspan class="cls-6">S</tspan><tspan x="11.98" y="0">ebha</tspan></text>
  <circle class="cls-2" cx="1825.13" cy="223.42" r="12.5"/>
  <text class="cls-3" transform="translate(1825.13 258.42)"><tspan class="cls-7">T</tspan><tspan class="cls-8" x="10.85" y="0">r</tspan><tspan x="18.79" y="0">ipoli</tspan></text>
</svg>
